<?xml version="1.0" encoding="UTF-8" standalone="no"?>
<svg
   width="512"
   height="512"
   viewBox="0 0 512 512"
   version="1.1"
   id="svg31"
   sodipodi:docname="localtranscribe.svg"
   inkscape:version="1.4.2 (ebf0e940, 2025-05-08)"
   inkscape:export-filename="../code/krets/stfu/html/icon-512.png"
   inkscape:export-xdpi="96"
   inkscape:export-ydpi="96"
   xmlns:inkscape="http://www.inkscape.org/namespaces/inkscape"
   xmlns:sodipodi="http://sodipodi.sourceforge.net/DTD/sodipodi-0.dtd"
   xmlns="http://www.w3.org/2000/svg"
   xmlns:svg="http://www.w3.org/2000/svg">
  <defs
     id="defs31" />
  <sodipodi:namedview
     id="namedview31"
     pagecolor="#ffffff"
     bordercolor="#000000"
     borderopacity="0.25"
     inkscape:showpageshadow="2"
     inkscape:pageopacity="0.0"
     inkscape:pagecheckerboard="0"
     inkscape:deskcolor="#d1d1d1"
     inkscape:zoom="0.90695629"
     inkscape:cx="182.47848"
     inkscape:cy="319.19951"
     inkscape:window-width="1472"
     inkscape:window-height="890"
     inkscape:window-x="0"
     inkscape:window-y="39"
     inkscape:window-maximized="0"
     inkscape:current-layer="svg31" />
  <rect
     style="fill:#ffffff;stroke-width:1.0463"
     id="rect32"
     width="498.37024"
     height="498.37024"
     x="7.9233046"
     y="7.7181306"
     rx="94.166664" />
  <rect
     width="512"
     height="512"
     rx="90"
     fill="#2E5560"
     id="rect1" />
  <path
     d="m 9.35216,265.98082 h 39.172114 l 17.409829,-66.31654 26.114743,130.62348 26.114744,-195.93522 30.4672,271.29492 30.4672,-236.12706 26.11474,170.81532 21.76229,-110.52756 13.05737,36.17266 h 34.81966"
     fill="none"
     stroke="#ff8200"
     stroke-width="18.7047"
     stroke-linecap="round"
     stroke-linejoin="round"
     id="path1" />
  <g
     fill="#ffffff"
     id="g31"
     transform="matrix(1.2920371,0,0,1.1986998,-136.12504,-60.498285)">
    <rect
       x="300"
       y="130"
       width="50"
       height="18"
       rx="9"
       id="rect2" />
    <rect
       x="360"
       y="130"
       width="30"
       height="18"
       rx="9"
       id="rect3" />
    <rect
       x="400"
       y="130"
       width="40"
       height="18"
       rx="9"
       id="rect4" />
    <rect
       x="450"
       y="130"
       width="20"
       height="18"
       rx="9"
       id="rect5" />
    <rect
       x="300"
       y="165"
       width="45"
       height="18"
       rx="9"
       id="rect6" />
    <rect
       x="355"
       y="165"
       width="20"
       height="18"
       rx="9"
       id="rect7" />
    <rect
       x="385"
       y="165"
       width="55"
       height="18"
       rx="9"
       id="rect8" />
    <rect
       x="450"
       y="165"
       width="10"
       height="18"
       rx="9"
       id="rect9" />
    <rect
       x="470"
       y="165"
       width="15"
       height="18"
       rx="9"
       id="rect10" />
    <rect
       x="300"
       y="200"
       width="55"
       height="18"
       rx="9"
       id="rect11" />
    <rect
       x="365"
       y="200"
       width="35"
       height="18"
       rx="9"
       id="rect12" />
    <rect
       x="410"
       y="200"
       width="60"
       height="18"
       rx="9"
       id="rect13" />
    <rect
       x="300"
       y="235"
       width="45"
       height="18"
       rx="9"
       id="rect14" />
    <rect
       x="355"
       y="235"
       width="15"
       height="18"
       rx="9"
       id="rect15" />
    <rect
       x="380"
       y="235"
       width="25"
       height="18"
       rx="9"
       id="rect16" />
    <rect
       x="415"
       y="235"
       width="45"
       height="18"
       rx="9"
       id="rect17" />
    <rect
       x="300"
       y="290"
       width="35"
       height="18"
       rx="9"
       id="rect18" />
    <rect
       x="345"
       y="290"
       width="45"
       height="18"
       rx="9"
       id="rect19" />
    <rect
       x="400"
       y="290"
       width="15"
       height="18"
       rx="9"
       id="rect20" />
    <rect
       x="425"
       y="290"
       width="55"
       height="18"
       rx="9"
       id="rect21" />
    <rect
       x="300"
       y="325"
       width="60"
       height="18"
       rx="9"
       id="rect22" />
    <rect
       x="370"
       y="325"
       width="30"
       height="18"
       rx="9"
       id="rect23" />
    <rect
       x="410"
       y="325"
       width="15"
       height="18"
       rx="9"
       id="rect24" />
    <rect
       x="435"
       y="325"
       width="45"
       height="18"
       rx="9"
       id="rect25" />
    <rect
       x="300"
       y="360"
       width="25"
       height="18"
       rx="9"
       id="rect26" />
    <rect
       x="335"
       y="360"
       width="15"
       height="18"
       rx="9"
       id="rect27" />
    <rect
       x="360"
       y="360"
       width="30"
       height="18"
       rx="9"
       id="rect28" />
    <rect
       x="400"
       y="360"
       width="60"
       height="18"
       rx="9"
       id="rect29" />
    <rect
       x="300"
       y="395"
       width="65"
       height="18"
       rx="9"
       id="rect30" />
    <rect
       x="375"
       y="395"
       width="45"
       height="18"
       rx="9"
       id="rect31" />
  </g>
</svg>
